<svg width="48" height="47" viewBox="0 0 48 47" fill="none" xmlns="http://www.w3.org/2000/svg">
<circle cx="23.8494" cy="22.8496" r="12.333" transform="rotate(-30.028 23.8494 22.8496)" fill="#FFB439"/>
<g filter="url(#filter0_d_871_67462)">
<circle cx="23.8494" cy="22.8496" r="12.333" transform="rotate(-30.028 23.8494 22.8496)" fill="url(#paint0_radial_871_67462)"/>
<circle cx="23.8494" cy="22.8496" r="11.2118" transform="rotate(-30.028 23.8494 22.8496)" stroke="url(#paint1_linear_871_67462)" stroke-width="2.24236"/>
</g>
<g filter="url(#filter1_d_871_67462)">
<path d="M20.5346 17.0772L20.5379 17.083C20.5603 17.1083 20.5802 17.1427 20.5999 17.1767L22.9914 21.3143C22.9988 21.3405 22.9854 21.3566 22.9744 21.3779C22.8871 21.5047 22.8018 21.6227 22.7112 21.7437C22.5879 21.9146 22.4627 22.0945 22.3394 22.2655L21.8957 22.8891C21.7733 23.0579 21.652 23.2275 21.5319 23.3979C21.3901 23.6029 21.2388 23.8049 21.0967 24.0094C20.9734 24.1804 20.8535 24.3572 20.7246 24.5307C20.6233 24.6735 20.5185 24.8104 20.423 24.9498C20.4162 24.9623 20.4068 24.9731 20.3953 24.9814C20.3894 24.9848 20.3894 24.9848 20.3803 24.9823L20.3863 24.6343C20.399 23.9685 20.4098 23.3116 20.4232 22.6459C20.4335 21.9355 20.4496 21.2217 20.4603 20.5111C20.4713 19.8546 20.4871 19.1941 20.4981 18.5376C20.5051 18.059 20.5174 17.5773 20.524 17.0982C20.5229 17.0839 20.5254 17.0747 20.5189 17.0636L20.5247 17.0602C20.522 17.0689 20.5312 17.0714 20.5346 17.0772Z" fill="#FFDD63"/>
<path d="M27.445 20.9019L27.4537 20.9046L26.8986 21.8911L25.1531 24.9901C25.1454 25.0004 25.1391 25.0117 25.1343 25.0236C25.1173 25.0335 25.1075 25.0165 25.1042 25.0106L23.0246 21.4128C23.0148 21.3958 23.0016 21.373 22.9973 21.3521C22.9899 21.3259 23.0103 21.3219 23.0304 21.3175C23.125 21.3087 23.2255 21.2966 23.3197 21.2882C23.6032 21.2622 23.8867 21.2363 24.1668 21.2045C24.4116 21.1776 24.6544 21.1597 24.8994 21.1333C25.1442 21.1064 25.3923 21.0854 25.6371 21.0585C25.8463 21.0373 26.0651 21.0183 26.2745 20.9963C26.4842 20.9748 26.7031 20.9558 26.912 20.9341C27.0774 20.9156 27.2459 20.9024 27.411 20.8833C27.4208 20.9003 27.43 20.9028 27.445 20.9019Z" fill="#FFDD63"/>
<path d="M27.1869 28.5875C27.1903 28.5933 27.1878 28.6025 27.1912 28.6083L27.1854 28.6117C27.1786 28.6 27.1636 28.6009 27.1511 28.5926C26.5069 28.2993 25.8594 28.0002 25.215 27.7064C24.5588 27.4045 23.8929 27.1005 23.2362 26.7989C22.6009 26.5076 21.9565 26.2138 21.3215 25.9229C21.153 25.8442 20.9884 25.771 20.8203 25.6921C20.8078 25.6838 20.7991 25.681 20.7776 25.6708C20.7946 25.661 20.8127 25.6654 20.8214 25.6681C21.4904 25.6718 22.1527 25.6795 22.8213 25.6835C23.5908 25.6907 24.3542 25.7007 25.1242 25.7076L25.5161 25.7103C25.534 25.7155 25.5408 25.7271 25.5472 25.7383L27.146 28.5043C27.1625 28.5329 27.1791 28.5616 27.1869 28.5875Z" fill="#FFDD63"/>
<path d="M20.3828 24.9997L20.3794 24.9939C20.5158 24.8076 20.6443 24.6187 20.7812 24.4321C20.9538 24.1873 21.1294 23.9479 21.3012 23.7029C21.433 23.5198 21.5668 23.3279 21.6984 23.1444C21.8928 22.8714 22.0846 22.6071 22.279 22.3342C22.4101 22.1509 22.5414 21.9682 22.6752 21.7762C22.7681 21.6455 22.8674 21.5117 22.9605 21.3814C22.9683 21.3692 22.9824 21.3532 22.9813 21.339C22.9876 21.3354 22.9907 21.3407 22.9878 21.3502L25.094 24.9942C25.1038 25.0111 25.1083 25.0312 25.1267 25.0361C25.1251 25.0603 25.1034 25.0496 25.0942 25.0471C25.0262 25.0482 24.9582 25.0493 24.8864 25.0449C23.4011 25.0305 21.9065 25.0145 20.4208 25.0004C20.408 24.9986 20.3951 24.9984 20.3823 25L20.3828 24.9997Z" fill="#FFDD63"/>
<path d="M27.8298 21.5948L27.8361 21.5911C27.8426 21.6023 27.8377 21.6207 27.8383 21.6352C27.6419 23.732 27.4487 25.8341 27.2515 27.9307C27.2323 28.1483 27.2072 28.3694 27.1875 28.5873C27.1783 28.5848 27.1753 28.5795 27.1719 28.5737L25.5134 25.7043C25.6714 25.422 25.8266 25.1484 25.9855 24.8655C26.5966 23.7774 27.211 22.6951 27.8162 21.6104C27.8251 21.6124 27.8278 21.6037 27.8303 21.5945L27.8298 21.5948Z" fill="#FFDD63"/>
<path d="M22.9925 21.3427L20.558 17.1309C20.5482 17.1139 20.5357 17.1056 20.5375 17.0819C22.82 18.3422 25.0994 19.5972 27.3757 20.8605C27.397 20.8715 27.4276 20.8842 27.4462 20.9039C27.3498 20.9221 27.2518 20.925 27.1576 20.9334C27.0421 20.9465 26.9187 20.9569 26.8032 20.97C26.7291 20.9739 26.6528 20.9876 26.579 20.9921C26.455 21.0028 26.3342 21.0189 26.2103 21.0297C26.1395 21.0395 26.0657 21.044 25.9914 21.0487L25.5133 21.0952C25.4336 21.1031 25.354 21.1109 25.2685 21.1221L24.9232 21.1611C24.8507 21.1703 24.7779 21.1766 24.7049 21.1798L24.2267 21.2263C24.1471 21.2342 24.0674 21.242 23.9819 21.2532L23.6367 21.2922C23.5568 21.2995 23.4832 21.3045 23.4033 21.3118C23.2643 21.3235 23.1254 21.3352 22.9842 21.3553C22.9983 21.3394 22.9925 21.3427 22.9925 21.3427Z" fill="#FFDD63"/>
</g>
<defs>
<filter id="filter0_d_871_67462" x="0.302609" y="-0.697207" width="47.0935" height="47.0936" filterUnits="userSpaceOnUse" color-interpolation-filters="sRGB">
<feFlood flood-opacity="0" result="BackgroundImageFix"/>
<feColorMatrix in="SourceAlpha" type="matrix" values="0 0 0 0 0 0 0 0 0 0 0 0 0 0 0 0 0 0 127 0" result="hardAlpha"/>
<feOffset/>
<feGaussianBlur stdDeviation="5.6059"/>
<feComposite in2="hardAlpha" operator="out"/>
<feColorMatrix type="matrix" values="0 0 0 0 0.980392 0 0 0 0 0.694118 0 0 0 0 0.223529 0 0 0 0.35 0"/>
<feBlend mode="normal" in2="BackgroundImageFix" result="effect1_dropShadow_871_67462"/>
<feBlend mode="normal" in="SourceGraphic" in2="effect1_dropShadow_871_67462" result="shape"/>
</filter>
<filter id="filter1_d_871_67462" x="20.3794" y="17.0602" width="7.46021" height="12.1121" filterUnits="userSpaceOnUse" color-interpolation-filters="sRGB">
<feFlood flood-opacity="0" result="BackgroundImageFix"/>
<feColorMatrix in="SourceAlpha" type="matrix" values="0 0 0 0 0 0 0 0 0 0 0 0 0 0 0 0 0 0 127 0" result="hardAlpha"/>
<feOffset dy="0.56059"/>
<feComposite in2="hardAlpha" operator="out"/>
<feColorMatrix type="matrix" values="0 0 0 0 0.894118 0 0 0 0 0.494118 0 0 0 0 0.0313726 0 0 0 1 0"/>
<feBlend mode="normal" in2="BackgroundImageFix" result="effect1_dropShadow_871_67462"/>
<feBlend mode="normal" in="SourceGraphic" in2="effect1_dropShadow_871_67462" result="shape"/>
</filter>
<radialGradient id="paint0_radial_871_67462" cx="0" cy="0" r="1" gradientUnits="userSpaceOnUse" gradientTransform="translate(23.8494 22.8496) rotate(90) scale(12.333)">
<stop offset="0.015625" stop-color="#FFBD52"/>
<stop offset="1" stop-color="#EF980A"/>
</radialGradient>
<linearGradient id="paint1_linear_871_67462" x1="29.4553" y1="11.6378" x2="23.8494" y2="35.1826" gradientUnits="userSpaceOnUse">
<stop stop-color="#FFEB7A"/>
<stop offset="1" stop-color="#FFD801"/>
</linearGradient>
</defs>
</svg>
