<svg width="627" height="147" viewBox="0 0 627 147" fill="none" xmlns="http://www.w3.org/2000/svg">
<path d="M477.765 73C478.447 73 479.002 72.4469 478.984 71.7652C478.751 62.5057 475.897 53.4925 470.742 45.7771C465.358 37.719 457.705 31.4386 448.751 27.7299C439.798 24.0212 429.946 23.0508 420.441 24.9415C410.936 26.8322 402.205 31.499 395.352 38.3518C388.499 45.2045 383.832 53.9355 381.942 63.4406C380.051 72.9456 381.021 82.7979 384.73 91.7515C388.439 100.705 394.719 108.358 402.777 113.742C410.492 118.897 419.506 121.751 428.765 121.984C429.447 122.002 430 121.447 430 120.765V120.765C430 120.083 429.447 119.532 428.765 119.514C419.994 119.281 411.458 116.573 404.149 111.689C396.497 106.576 390.533 99.3088 387.011 90.8064C383.49 82.3041 382.568 72.9484 384.364 63.9224C386.159 54.8963 390.591 46.6054 397.098 40.098C403.605 33.5906 411.896 29.159 420.922 27.3636C429.948 25.5682 439.304 26.4897 447.806 30.0115C456.309 33.5332 463.576 39.4972 468.689 47.1491C473.573 54.4584 476.281 62.9943 476.514 71.7652C476.532 72.4469 477.083 73 477.765 73V73Z" fill="url(#paint0_linear_1035_2816)" fill-opacity="0.7"/>
<path d="M392.337 71.1307C391.8 71.104 391.341 71.5184 391.328 72.0567C391.15 79.3669 393.048 86.5854 396.812 92.8705C400.742 99.4346 406.531 104.686 413.446 107.96C420.361 111.234 428.092 112.384 435.661 111.265C443.229 110.145 450.296 106.806 455.967 101.671C461.639 96.5349 465.659 89.8328 467.522 82.4119C469.384 74.9909 469.003 67.1845 466.429 59.9796C463.854 52.7748 459.201 46.4952 453.058 41.9349C447.175 37.5685 440.18 34.9661 432.888 34.4204C432.351 34.3802 431.893 34.7958 431.867 35.3335V35.3335C431.84 35.8712 432.255 36.3274 432.791 36.3683C439.698 36.8945 446.323 39.3638 451.896 43.5004C457.73 47.8308 462.148 53.7939 464.593 60.6357C467.038 67.4774 467.399 74.8904 465.631 81.9374C463.862 88.9843 460.044 95.3486 454.659 100.226C449.273 105.102 442.563 108.273 435.376 109.336C428.188 110.399 420.847 109.307 414.281 106.198C407.714 103.089 402.217 98.1022 398.484 91.8689C394.919 85.9147 393.117 79.0782 393.276 72.1532C393.288 71.6149 392.875 71.1573 392.337 71.1307V71.1307Z" fill="url(#paint1_linear_1035_2816)" fill-opacity="0.7"/>
<path d="M453.663 76.698C454 76.7509 454.318 76.5199 454.362 76.1808C454.964 71.576 454.249 66.89 452.293 62.6687C450.25 58.2599 446.945 54.5559 442.797 52.0251C438.649 49.4943 433.844 48.2504 428.989 48.4505C424.134 48.6507 419.448 50.2861 415.522 53.1498C411.597 56.0135 408.609 59.977 406.936 64.539C405.263 69.1009 404.98 74.0566 406.124 78.7792C407.267 83.5018 409.785 87.7792 413.36 91.0706C416.782 94.2221 421.026 96.3341 425.595 97.167C425.931 97.2283 426.248 96.9965 426.301 96.6587V96.6587C426.354 96.3209 426.123 96.005 425.786 95.9433C421.459 95.1485 417.441 93.1454 414.199 90.1598C410.804 87.0343 408.413 82.9724 407.327 78.4878C406.241 74.0032 406.509 69.2973 408.098 64.9653C409.687 60.6332 412.524 56.8695 416.252 54.1501C419.98 51.4307 424.43 49.8778 429.04 49.6877C433.651 49.4976 438.214 50.6789 442.153 53.0821C446.091 55.4854 449.229 59.0027 451.169 63.1893C453.022 67.1884 453.703 71.6266 453.139 75.9895C453.095 76.3285 453.325 76.6452 453.663 76.698V76.698Z" fill="url(#paint2_linear_1035_2816)" fill-opacity="0.7"/>
<g clip-path="url(#clip0_1035_2816)">
<path d="M477.765 73C478.447 73 479.002 72.4469 478.984 71.7652C478.751 62.5057 475.897 53.4925 470.742 45.7771C465.358 37.719 457.705 31.4386 448.751 27.7299C439.798 24.0212 429.946 23.0508 420.441 24.9415C410.936 26.8322 402.205 31.499 395.352 38.3518C388.499 45.2045 383.832 53.9355 381.942 63.4406C380.051 72.9456 381.021 82.7979 384.73 91.7515C388.439 100.705 394.719 108.358 402.777 113.742C410.492 118.897 419.506 121.751 428.765 121.984C429.447 122.002 430 121.447 430 120.765V120.765C430 120.083 429.447 119.532 428.765 119.514C419.994 119.281 411.458 116.573 404.149 111.689C396.497 106.576 390.533 99.3088 387.011 90.8064C383.49 82.3041 382.568 72.9484 384.364 63.9224C386.159 54.8963 390.591 46.6054 397.098 40.098C403.605 33.5906 411.896 29.159 420.922 27.3636C429.948 25.5682 439.304 26.4897 447.806 30.0115C456.309 33.5332 463.576 39.4972 468.689 47.1491C473.573 54.4584 476.281 62.9943 476.514 71.7652C476.532 72.4469 477.083 73 477.765 73V73Z" fill="url(#paint3_linear_1035_2816)" fill-opacity="0.7"/>
<path d="M392.337 71.1307C391.8 71.104 391.341 71.5184 391.328 72.0567C391.15 79.3669 393.048 86.5854 396.812 92.8705C400.742 99.4346 406.531 104.686 413.446 107.96C420.361 111.234 428.092 112.384 435.661 111.265C443.229 110.145 450.296 106.806 455.967 101.671C461.639 96.5349 465.659 89.8328 467.522 82.4119C469.384 74.9909 469.003 67.1845 466.429 59.9796C463.854 52.7748 459.201 46.4952 453.058 41.9349C447.175 37.5685 440.18 34.9661 432.888 34.4204C432.351 34.3802 431.893 34.7958 431.867 35.3335V35.3335C431.84 35.8712 432.255 36.3274 432.791 36.3683C439.698 36.8945 446.323 39.3638 451.896 43.5004C457.73 47.8308 462.148 53.7939 464.593 60.6357C467.038 67.4774 467.399 74.8904 465.631 81.9374C463.862 88.9843 460.044 95.3486 454.659 100.226C449.273 105.102 442.563 108.273 435.376 109.336C428.188 110.399 420.847 109.307 414.281 106.198C407.714 103.089 402.217 98.1022 398.484 91.8689C394.919 85.9147 393.117 79.0782 393.276 72.1532C393.288 71.6149 392.875 71.1573 392.337 71.1307V71.1307Z" fill="url(#paint4_linear_1035_2816)" fill-opacity="0.7"/>
<path d="M453.663 76.698C454 76.7509 454.318 76.5199 454.362 76.1808C454.964 71.576 454.249 66.89 452.293 62.6687C450.25 58.2599 446.945 54.5559 442.797 52.0251C438.649 49.4943 433.844 48.2504 428.989 48.4505C424.134 48.6507 419.448 50.2861 415.522 53.1498C411.597 56.0135 408.609 59.977 406.936 64.539C405.263 69.1009 404.98 74.0566 406.124 78.7792C407.267 83.5018 409.785 87.7792 413.36 91.0706C416.782 94.2221 421.026 96.3341 425.595 97.167C425.931 97.2283 426.248 96.9965 426.301 96.6587V96.6587C426.354 96.3209 426.123 96.005 425.786 95.9433C421.459 95.1485 417.441 93.1454 414.199 90.1598C410.804 87.0343 408.413 82.9724 407.327 78.4878C406.241 74.0032 406.509 69.2973 408.098 64.9653C409.687 60.6332 412.524 56.8695 416.252 54.1501C419.98 51.4307 424.43 49.8778 429.04 49.6877C433.651 49.4976 438.214 50.6789 442.153 53.0821C446.091 55.4854 449.229 59.0027 451.169 63.1893C453.022 67.1884 453.703 71.6266 453.139 75.9895C453.095 76.3285 453.325 76.6452 453.663 76.698V76.698Z" fill="url(#paint5_linear_1035_2816)" fill-opacity="0.7"/>
<path d="M57.53 100V44.7H82.81C87.866 44.7 92.211 45.5163 95.845 47.149C99.5317 48.7817 102.376 51.1517 104.377 54.259C106.378 57.3137 107.379 60.9477 107.379 65.161C107.379 69.3217 106.378 72.9293 104.377 75.984C102.376 79.0387 99.5317 81.4087 95.845 83.094C92.211 84.7267 87.866 85.543 82.81 85.543H66.22L73.172 78.749V100H57.53ZM73.172 80.408L66.22 73.219H81.862C85.1273 73.219 87.55 72.508 89.13 71.086C90.7627 69.664 91.579 67.689 91.579 65.161C91.579 62.5803 90.7627 60.579 89.13 59.157C87.55 57.735 85.1273 57.024 81.862 57.024H66.22L73.172 49.835V80.408ZM135.705 100.711C131.018 100.711 126.857 99.763 123.223 97.867C119.589 95.971 116.719 93.364 114.612 90.046C112.558 86.6753 111.531 82.8307 111.531 78.512C111.531 74.1933 112.558 70.375 114.612 67.057C116.719 63.739 119.589 61.1583 123.223 59.315C126.857 57.419 131.018 56.471 135.705 56.471C140.393 56.471 144.553 57.419 148.187 59.315C151.874 61.1583 154.744 63.739 156.798 67.057C158.852 70.375 159.879 74.1933 159.879 78.512C159.879 82.8307 158.852 86.6753 156.798 90.046C154.744 93.364 151.874 95.971 148.187 97.867C144.553 99.763 140.393 100.711 135.705 100.711ZM135.705 88.782C137.443 88.782 138.971 88.387 140.287 87.597C141.657 86.807 142.736 85.6483 143.526 84.121C144.316 82.541 144.711 80.6713 144.711 78.512C144.711 76.3527 144.316 74.5357 143.526 73.061C142.736 71.5337 141.657 70.375 140.287 69.585C138.971 68.795 137.443 68.4 135.705 68.4C134.02 68.4 132.493 68.795 131.123 69.585C129.807 70.375 128.727 71.5337 127.884 73.061C127.094 74.5357 126.699 76.3527 126.699 78.512C126.699 80.6713 127.094 82.541 127.884 84.121C128.727 85.6483 129.807 86.807 131.123 87.597C132.493 88.387 134.02 88.782 135.705 88.782ZM185.951 100.711C180.473 100.711 176.207 99.368 173.153 96.682C170.098 93.9433 168.571 89.8353 168.571 84.358V47.623H183.581V84.2C183.581 85.7273 184.002 86.9387 184.845 87.834C185.687 88.6767 186.767 89.098 188.084 89.098C189.874 89.098 191.402 88.6503 192.666 87.755L196.379 98.262C195.115 99.1047 193.561 99.7103 191.718 100.079C189.874 100.5 187.952 100.711 185.951 100.711ZM162.33 69.98V58.762H193.377V69.98H162.33ZM253.755 101.106C249.331 101.106 245.249 100.395 241.51 98.973C237.771 97.551 234.505 95.5497 231.714 92.969C228.975 90.3357 226.842 87.281 225.315 83.805C223.788 80.329 223.024 76.5107 223.024 72.35C223.024 68.1893 223.788 64.371 225.315 60.895C226.842 57.419 228.975 54.3907 231.714 51.81C234.505 49.1767 237.771 47.149 241.51 45.727C245.249 44.305 249.331 43.594 253.755 43.594C258.232 43.594 262.313 44.305 266 45.727C269.739 47.149 272.978 49.1767 275.717 51.81C278.456 54.3907 280.589 57.419 282.116 60.895C283.696 64.371 284.486 68.1893 284.486 72.35C284.486 76.5107 283.696 80.3553 282.116 83.884C280.589 87.36 278.456 90.3883 275.717 92.969C272.978 95.5497 269.739 97.551 266 98.973C262.313 100.395 258.232 101.106 253.755 101.106ZM253.755 88.15C255.862 88.15 257.81 87.7813 259.601 87.044C261.444 86.3067 263.024 85.2533 264.341 83.884C265.71 82.462 266.764 80.7767 267.501 78.828C268.291 76.8793 268.686 74.72 268.686 72.35C268.686 69.9273 268.291 67.768 267.501 65.872C266.764 63.9233 265.71 62.2643 264.341 60.895C263.024 59.473 261.444 58.3933 259.601 57.656C257.81 56.9187 255.862 56.55 253.755 56.55C251.648 56.55 249.673 56.9187 247.83 57.656C246.039 58.3933 244.459 59.473 243.09 60.895C241.773 62.2643 240.72 63.9233 239.93 65.872C239.193 67.768 238.824 69.9273 238.824 72.35C238.824 74.72 239.193 76.8793 239.93 78.828C240.72 80.7767 241.773 82.462 243.09 83.884C244.459 85.2533 246.039 86.3067 247.83 87.044C249.673 87.7813 251.648 88.15 253.755 88.15ZM289.151 70.138L295.076 49.598L297.209 58.13C294.576 58.13 292.417 57.3663 290.731 55.839C289.046 54.259 288.203 52.1523 288.203 49.519C288.203 46.833 289.046 44.7 290.731 43.12C292.469 41.4873 294.629 40.671 297.209 40.671C299.79 40.671 301.923 41.4873 303.608 43.12C305.294 44.7 306.136 46.833 306.136 49.519C306.136 50.2563 306.084 51.02 305.978 51.81C305.873 52.5473 305.636 53.4427 305.267 54.496C304.951 55.4967 304.398 56.866 303.608 58.604L298.552 70.138H289.151ZM364.534 101.106C360.163 101.106 356.108 100.421 352.368 99.052C348.629 97.63 345.39 95.6287 342.651 93.048C339.965 90.4673 337.859 87.439 336.331 83.963C334.804 80.4343 334.04 76.5633 334.04 72.35C334.04 68.1367 334.804 64.292 336.331 60.816C337.859 57.2873 339.992 54.2327 342.73 51.652C345.469 49.0713 348.708 47.0963 352.447 45.727C356.239 44.305 360.374 43.594 364.85 43.594C370.064 43.594 374.725 44.463 378.833 46.201C382.941 47.939 386.338 50.4407 389.024 53.706L379.07 62.712C377.174 60.658 375.12 59.1307 372.908 58.13C370.749 57.0767 368.326 56.55 365.64 56.55C363.27 56.55 361.111 56.9187 359.162 57.656C357.214 58.3933 355.555 59.473 354.185 60.895C352.816 62.2643 351.736 63.9233 350.946 65.872C350.209 67.768 349.84 69.9273 349.84 72.35C349.84 74.6673 350.209 76.8003 350.946 78.749C351.736 80.6977 352.816 82.383 354.185 83.805C355.555 85.1743 357.187 86.254 359.083 87.044C361.032 87.7813 363.165 88.15 365.482 88.15C367.8 88.15 370.064 87.7813 372.276 87.044C374.488 86.254 376.727 84.9373 378.991 83.094L387.76 94.075C384.6 96.3397 380.94 98.0777 376.779 99.289C372.619 100.5 368.537 101.106 364.534 101.106ZM373.935 92.021V71.165H387.76V94.075L373.935 92.021ZM466.648 100V44.7H482.29V87.597H508.676V100H466.648ZM514.866 100V44.7H541.015C547.124 44.7 552.496 45.8323 557.131 48.097C561.766 50.3617 565.373 53.548 567.954 57.656C570.587 61.764 571.904 66.662 571.904 72.35C571.904 77.9853 570.587 82.8833 567.954 87.044C565.373 91.152 561.766 94.3383 557.131 96.603C552.496 98.8677 547.124 100 541.015 100H514.866ZM530.508 87.518H540.383C543.543 87.518 546.282 86.9387 548.599 85.78C550.969 84.5687 552.812 82.8307 554.129 80.566C555.446 78.2487 556.104 75.51 556.104 72.35C556.104 69.1373 555.446 66.3987 554.129 64.134C552.812 61.8693 550.969 60.1577 548.599 58.999C546.282 57.7877 543.543 57.182 540.383 57.182H530.508V87.518Z" fill="url(#paint6_linear_1035_2816)"/>
<g filter="url(#filter0_d_1035_2816)">
<circle cx="97.0823" cy="177.404" r="32.7027" transform="rotate(15 97.0823 177.404)" fill="url(#paint7_radial_1035_2816)"/>
<circle cx="97.0823" cy="177.404" r="29.7298" transform="rotate(15 97.0823 177.404)" stroke="url(#paint8_linear_1035_2816)" stroke-width="5.94595"/>
</g>
</g>
<g filter="url(#filter1_d_1035_2816)">
<circle cx="431.059" cy="73.0603" r="32.7027" transform="rotate(15 431.059 73.0603)" fill="#FFB439"/>
<g filter="url(#filter2_d_1035_2816)">
<circle cx="431.059" cy="73.0603" r="32.7027" transform="rotate(15 431.059 73.0603)" fill="url(#paint9_radial_1035_2816)"/>
<circle cx="431.059" cy="73.0603" r="29.7298" transform="rotate(15 431.059 73.0603)" stroke="url(#paint10_linear_1035_2816)" stroke-width="5.94595"/>
</g>
<path d="M405.683 45.732L404.945 51.8835L400.182 54.7875L405.647 55.9046L408.428 61.4413L409.166 55.2899L413.928 52.3859L408.463 51.2687L405.683 45.732Z" fill="white"/>
<g filter="url(#filter3_d_1035_2816)">
<path d="M435.678 56.0209L435.673 56.0382C435.668 56.1275 435.64 56.2294 435.613 56.3299L432.334 68.5705C432.298 68.6333 432.243 68.6385 432.182 68.6577C431.781 68.7317 431.4 68.7927 431.003 68.8495C430.451 68.9387 429.879 69.0408 429.327 69.13L427.326 69.4663C426.78 69.553 426.235 69.6434 425.69 69.7373C425.039 69.8554 424.377 69.9503 423.727 70.067C423.175 70.1562 422.619 70.2626 422.052 70.3461C421.594 70.4234 421.141 70.4836 420.7 70.5656C420.664 70.5763 420.626 70.5788 420.589 70.5728C420.572 70.5682 420.572 70.5682 420.559 70.5463L421.223 69.9056C422.496 68.6815 423.749 67.4705 425.023 66.2483C426.375 64.9362 427.744 63.6287 429.097 62.317C430.349 61.1074 431.618 59.8992 432.87 58.6896C433.781 57.8056 434.707 56.9259 435.619 56.0405C435.643 56.0117 435.665 55.9991 435.674 55.9661L435.691 55.9707C435.67 55.9819 435.682 56.0037 435.678 56.0209V56.0209Z" fill="#FFDD63"/>
<path d="M441.453 76.1469L441.464 76.1684L438.573 76.9758L429.488 79.5092C429.455 79.514 429.422 79.5233 429.39 79.5368C429.34 79.5233 429.353 79.4731 429.358 79.4558L432.21 68.812C432.224 68.7617 432.242 68.6942 432.273 68.6472C432.308 68.5843 432.354 68.615 432.4 68.6443C432.593 68.8055 432.805 68.9713 432.997 69.1321C433.577 69.6153 434.157 70.0985 434.741 70.5644C435.251 70.9732 435.739 71.395 436.248 71.8053C436.757 72.2141 437.262 72.6401 437.771 73.0489C438.202 73.4016 438.648 73.7765 439.082 74.1282C439.515 74.4813 439.961 74.8562 440.393 75.2075C440.738 75.483 441.079 75.7743 441.424 76.0484C441.41 76.0986 441.423 76.1205 441.453 76.1469V76.1469Z" fill="#FFDD63"/>
<path d="M426.554 90.0676C426.549 90.0848 426.527 90.0975 426.523 90.1147L426.506 90.1101C426.515 90.0756 426.485 90.0491 426.477 90.0101C425.82 88.252 425.168 86.4767 424.511 84.7173C423.848 82.9205 423.17 81.1015 422.505 79.3044C421.861 77.5668 421.204 75.8073 420.56 74.0711C420.392 73.6074 420.221 73.1614 420.054 72.6982C420.046 72.6591 420.035 72.6376 420.014 72.5781C420.064 72.5916 420.09 72.6338 420.101 72.6553C421.348 73.9174 422.574 75.1741 423.82 76.4358C425.249 77.8928 426.66 79.3437 428.09 80.801L428.82 81.5413C428.844 81.5846 428.835 81.6191 428.826 81.6521L426.633 89.8349C426.61 89.9196 426.588 90.0044 426.554 90.0676V90.0676Z" fill="#FFDD63"/>
<path d="M420.529 70.5843L420.534 70.5671C421.139 70.4738 421.734 70.3609 422.341 70.2679C423.123 70.1329 423.902 70.0137 424.683 69.8768C425.274 69.7811 425.884 69.6724 426.475 69.5752C427.352 69.4284 428.207 69.2928 429.083 69.146C429.673 69.0485 430.262 68.9524 430.873 68.8437C431.292 68.7728 431.729 68.7084 432.148 68.639C432.185 68.6307 432.242 68.6273 432.266 68.5985C432.285 68.6035 432.281 68.6193 432.257 68.6315L429.369 79.4118C429.355 79.462 429.326 79.5081 429.351 79.5517C429.303 79.5942 429.282 79.5333 429.27 79.5114C429.14 79.3859 429.011 79.2604 428.885 79.1173C426.128 76.3043 423.357 73.4704 420.599 70.6569C420.579 70.6295 420.555 70.605 420.528 70.584L420.529 70.5843Z" fill="#FFDD63"/>
<path d="M440.873 78.1706L440.891 78.1756C440.883 78.2086 440.839 78.2338 440.813 78.2622C436.511 81.8234 432.206 85.4004 427.903 88.9597C427.459 89.3316 426.998 89.6988 426.552 90.0703C426.539 90.0485 426.543 90.0327 426.548 90.0154L428.822 81.5268C429.648 81.294 430.452 81.0724 431.281 80.8405C434.467 79.9476 437.649 79.0719 440.818 78.1743C440.831 78.1948 440.852 78.1836 440.874 78.171L440.873 78.1706Z" fill="#FFDD63"/>
<path d="M432.281 68.62L435.619 56.1598C435.633 56.1096 435.625 56.0705 435.673 56.0295C437.586 62.6732 439.503 69.3011 441.4 75.9388C441.419 75.9994 441.453 76.0807 441.45 76.1524C441.236 76.0056 441.047 75.8272 440.854 75.6664C440.613 75.4741 440.362 75.2622 440.121 75.07C439.975 74.9384 439.807 74.8209 439.66 74.6908C439.407 74.4785 439.151 74.282 438.898 74.0697C438.747 73.9554 438.601 73.8253 438.452 73.6948L437.469 72.8849C437.305 72.7502 437.141 72.6155 436.96 72.4761L436.24 71.9015C436.087 71.7829 435.938 71.6579 435.795 71.527L434.812 70.7172C434.648 70.5824 434.484 70.4477 434.303 70.3084L433.583 69.7338C433.419 69.5976 433.272 69.4689 433.108 69.3327C432.826 69.094 432.544 68.8552 432.242 68.628C432.298 68.6246 432.281 68.62 432.281 68.62V68.62Z" fill="#FFDD63"/>
</g>
</g>
<defs>
<filter id="filter0_d_1035_2816" x="34.6413" y="114.966" width="124.881" height="124.881" filterUnits="userSpaceOnUse" color-interpolation-filters="sRGB">
<feFlood flood-opacity="0" result="BackgroundImageFix"/>
<feColorMatrix in="SourceAlpha" type="matrix" values="0 0 0 0 0 0 0 0 0 0 0 0 0 0 0 0 0 0 127 0" result="hardAlpha"/>
<feOffset/>
<feGaussianBlur stdDeviation="14.8649"/>
<feComposite in2="hardAlpha" operator="out"/>
<feColorMatrix type="matrix" values="0 0 0 0 0.980392 0 0 0 0 0.694118 0 0 0 0 0.223529 0 0 0 0.35 0"/>
<feBlend mode="normal" in2="BackgroundImageFix" result="effect1_dropShadow_1035_2816"/>
<feBlend mode="normal" in="SourceGraphic" in2="effect1_dropShadow_1035_2816" result="shape"/>
</filter>
<filter id="filter1_d_1035_2816" x="385.794" y="33" width="90.516" height="90.5131" filterUnits="userSpaceOnUse" color-interpolation-filters="sRGB">
<feFlood flood-opacity="0" result="BackgroundImageFix"/>
<feColorMatrix in="SourceAlpha" type="matrix" values="0 0 0 0 0 0 0 0 0 0 0 0 0 0 0 0 0 0 127 0" result="hardAlpha"/>
<feOffset dy="5.20576"/>
<feGaussianBlur stdDeviation="2.60288"/>
<feComposite in2="hardAlpha" operator="out"/>
<feColorMatrix type="matrix" values="0 0 0 0 0.395833 0 0 0 0 0.26125 0 0 0 0 0 0 0 0 0.11 0"/>
<feBlend mode="normal" in2="BackgroundImageFix" result="effect1_dropShadow_1035_2816"/>
<feBlend mode="normal" in="SourceGraphic" in2="effect1_dropShadow_1035_2816" result="shape"/>
</filter>
<filter id="filter2_d_1035_2816" x="368.618" y="10.6218" width="124.881" height="124.881" filterUnits="userSpaceOnUse" color-interpolation-filters="sRGB">
<feFlood flood-opacity="0" result="BackgroundImageFix"/>
<feColorMatrix in="SourceAlpha" type="matrix" values="0 0 0 0 0 0 0 0 0 0 0 0 0 0 0 0 0 0 127 0" result="hardAlpha"/>
<feOffset/>
<feGaussianBlur stdDeviation="14.8649"/>
<feComposite in2="hardAlpha" operator="out"/>
<feColorMatrix type="matrix" values="0 0 0 0 0.980392 0 0 0 0 0.694118 0 0 0 0 0.223529 0 0 0 0.35 0"/>
<feBlend mode="normal" in2="BackgroundImageFix" result="effect1_dropShadow_1035_2816"/>
<feBlend mode="normal" in="SourceGraphic" in2="effect1_dropShadow_1035_2816" result="shape"/>
</filter>
<filter id="filter3_d_1035_2816" x="420.014" y="55.9688" width="21.4502" height="35.6349" filterUnits="userSpaceOnUse" color-interpolation-filters="sRGB">
<feFlood flood-opacity="0" result="BackgroundImageFix"/>
<feColorMatrix in="SourceAlpha" type="matrix" values="0 0 0 0 0 0 0 0 0 0 0 0 0 0 0 0 0 0 127 0" result="hardAlpha"/>
<feOffset dy="1.48649"/>
<feComposite in2="hardAlpha" operator="out"/>
<feColorMatrix type="matrix" values="0 0 0 0 0.894118 0 0 0 0 0.494118 0 0 0 0 0.0313726 0 0 0 1 0"/>
<feBlend mode="normal" in2="BackgroundImageFix" result="effect1_dropShadow_1035_2816"/>
<feBlend mode="normal" in="SourceGraphic" in2="effect1_dropShadow_1035_2816" result="shape"/>
</filter>
<linearGradient id="paint0_linear_1035_2816" x1="391.78" y1="33.2249" x2="447.506" y2="138.648" gradientUnits="userSpaceOnUse">
<stop stop-color="#FDCA15"/>
<stop offset="1" stop-color="#FDF537"/>
</linearGradient>
<linearGradient id="paint1_linear_1035_2816" x1="399.827" y1="41.5953" x2="443.821" y2="124.824" gradientUnits="userSpaceOnUse">
<stop stop-color="#FDCA15"/>
<stop offset="1" stop-color="#FDF537"/>
</linearGradient>
<linearGradient id="paint2_linear_1035_2816" x1="410.839" y1="53.0549" x2="438.779" y2="105.912" gradientUnits="userSpaceOnUse">
<stop stop-color="#FDCA15"/>
<stop offset="1" stop-color="#FDF537"/>
</linearGradient>
<linearGradient id="paint3_linear_1035_2816" x1="391.78" y1="33.2249" x2="447.506" y2="138.648" gradientUnits="userSpaceOnUse">
<stop stop-color="#FDCA15"/>
<stop offset="1" stop-color="#FDF537"/>
</linearGradient>
<linearGradient id="paint4_linear_1035_2816" x1="399.827" y1="41.5953" x2="443.821" y2="124.824" gradientUnits="userSpaceOnUse">
<stop stop-color="#FDCA15"/>
<stop offset="1" stop-color="#FDF537"/>
</linearGradient>
<linearGradient id="paint5_linear_1035_2816" x1="410.839" y1="53.0549" x2="438.779" y2="105.912" gradientUnits="userSpaceOnUse">
<stop stop-color="#FDCA15"/>
<stop offset="1" stop-color="#FDF537"/>
</linearGradient>
<linearGradient id="paint6_linear_1035_2816" x1="193.499" y1="96.3529" x2="524.156" y2="35.1609" gradientUnits="userSpaceOnUse">
<stop stop-color="#FFAD40"/>
<stop offset="1" stop-color="#FFC700"/>
</linearGradient>
<radialGradient id="paint7_radial_1035_2816" cx="0" cy="0" r="1" gradientUnits="userSpaceOnUse" gradientTransform="translate(97.0823 177.404) rotate(90) scale(32.7027)">
<stop offset="0.015625" stop-color="#FFBD52"/>
<stop offset="1" stop-color="#EF980A"/>
</radialGradient>
<linearGradient id="paint8_linear_1035_2816" x1="111.947" y1="147.674" x2="97.0823" y2="210.107" gradientUnits="userSpaceOnUse">
<stop stop-color="#FFEB7A"/>
<stop offset="1" stop-color="#FFD801"/>
</linearGradient>
<radialGradient id="paint9_radial_1035_2816" cx="0" cy="0" r="1" gradientUnits="userSpaceOnUse" gradientTransform="translate(431.059 73.0603) rotate(90) scale(32.7027)">
<stop offset="0.015625" stop-color="#FFBD52"/>
<stop offset="1" stop-color="#EF980A"/>
</radialGradient>
<linearGradient id="paint10_linear_1035_2816" x1="445.924" y1="43.3306" x2="431.059" y2="105.763" gradientUnits="userSpaceOnUse">
<stop stop-color="#FFEB7A"/>
<stop offset="1" stop-color="#FFD801"/>
</linearGradient>
<clipPath id="clip0_1035_2816">
<rect width="593" height="130" fill="white" transform="translate(25 2)"/>
</clipPath>
</defs>
</svg>
