<svg width="240" height="244" viewBox="0 0 240 244" fill="none" xmlns="http://www.w3.org/2000/svg">
<path d="M175.08 68.8512C207.122 100.893 207.122 152.842 175.08 184.883C143.039 216.925 91.0897 216.925 59.0484 184.883C27.007 152.842 27.007 100.893 59.0484 68.8512C91.0897 36.8099 143.039 36.8099 175.08 68.8512Z" fill="#FBF5FF" stroke="url(#paint0_linear_862_58792)" stroke-width="1.27632"/>
<path d="M181.526 176.04C213.816 143.75 213.816 91.3962 181.526 59.1057C149.235 26.8151 96.8819 26.8151 64.5913 59.1057C32.3007 91.3962 32.3007 143.75 64.5913 176.04C96.8819 208.331 149.235 208.331 181.526 176.04Z" fill="url(#paint1_linear_862_58792)" fill-opacity="0.66"/>
<path d="M83.4438 136.674C88.9356 136.674 93.3876 131.151 93.3876 124.337C93.3876 117.524 88.9356 112 83.4438 112C77.952 112 73.5 117.524 73.5 124.337C73.5 131.151 77.952 136.674 83.4438 136.674Z" fill="#D4BEF5"/>
<path d="M86.4438 134.674C91.9356 134.674 96.3876 129.151 96.3876 122.337C96.3876 115.524 91.9356 110 86.4438 110C80.952 110 76.5 115.524 76.5 122.337C76.5 129.151 80.952 134.674 86.4438 134.674Z" fill="#6A52C5"/>
<path d="M167.638 124.337C167.638 131.146 163.188 136.674 157.694 136.674C152.199 136.674 147.75 131.146 147.75 124.337C147.75 117.528 152.199 112 157.694 112C163.188 112 167.638 117.528 167.638 124.337Z" fill="#D4BEF5"/>
<path d="M169.638 122.337C169.638 129.146 165.188 134.674 159.694 134.674C154.199 134.674 149.75 129.146 149.75 122.337C149.75 115.528 154.199 110 159.694 110C165.188 110 169.638 115.528 169.638 122.337Z" fill="#6A52C5"/>
<path d="M175.548 106.528C174.267 106.528 173.037 105.871 172.346 104.691C169.312 99.4498 164.964 95.8767 159.402 94.1071C157.464 93.4835 156.385 91.4104 157.009 89.4722C157.633 87.5341 159.706 86.4554 161.644 87.079C169.009 89.4217 174.756 94.1071 178.734 101C179.745 102.77 179.155 105.012 177.385 106.04C176.812 106.377 176.172 106.528 175.548 106.528Z" fill="#6A52C5"/>
<path d="M70.5829 106.528C69.9593 106.528 69.3188 106.377 68.7458 106.04C66.9761 105.028 66.3862 102.77 67.3975 101C71.375 94.1071 77.1222 89.4217 84.4873 87.079C86.4255 86.4554 88.4986 87.5341 89.1221 89.4722C89.7457 91.4104 88.6671 93.4835 86.7289 94.1071C81.1671 95.8767 76.8188 99.4329 73.7851 104.691C73.0941 105.871 71.8638 106.528 70.5829 106.528Z" fill="#6A52C5"/>
<path d="M145.615 165.786C144.25 165.786 142.919 165.011 142.295 163.697C138.2 155.185 131.07 150.079 123.233 150.062H123.166C115.245 150.062 108.031 155.169 103.834 163.73C102.941 165.551 100.733 166.326 98.8962 165.416C97.076 164.522 96.3176 162.315 97.2109 160.477C102.672 149.32 112.379 142.68 123.166 142.68H123.267C134.003 142.73 143.61 149.388 148.952 160.494C149.829 162.331 149.053 164.539 147.233 165.416C146.711 165.668 146.171 165.786 145.632 165.786H145.615Z" fill="#6A52C5"/>
<path opacity="0.55" d="M176.508 150.551C175.901 149.506 174.368 149.556 173.845 150.669C170.508 157.865 167.34 165.18 164.845 172.697C163.328 177.23 163.076 181.393 165.57 185.607C167.593 189.011 171.098 191.759 175.227 191.624C181.109 191.438 186.132 186.736 187.16 181.023C188.222 175.107 185.121 169.916 183.098 164.641C181.986 161.742 180.604 158.927 179.289 156.129C178.598 154.68 177.907 153.231 177.216 151.781C177.132 151.596 176.845 151.124 176.525 150.584L176.508 150.551Z" fill="#A2C0FF"/>
<g opacity="0.2">
<path d="M124.229 196.393C87.2013 196.393 54.6733 169.242 49.0441 131.54C46.0441 111.45 51.0665 91.3936 63.1508 75.0622C75.235 58.7308 92.9653 48.096 113.072 45.096C115.667 44.7083 118.078 46.4948 118.465 49.0903C118.853 51.6858 117.066 54.0959 114.471 54.4836C96.8754 57.0959 81.3698 66.4161 70.7856 80.7082C60.2013 95.0003 55.8193 112.562 58.4317 130.158C63.8418 166.461 97.7855 191.607 134.089 186.197C136.684 185.809 139.094 187.596 139.482 190.191C139.87 192.787 138.083 195.197 135.488 195.584C131.712 196.141 127.937 196.427 124.229 196.427V196.393Z" fill="white"/>
</g>
<defs>
<linearGradient id="paint0_linear_862_58792" x1="-269.424" y1="41.9293" x2="144.691" y2="-105.915" gradientUnits="userSpaceOnUse">
<stop stop-color="white"/>
<stop offset="0.0001" stop-color="white" stop-opacity="0.3"/>
<stop offset="1" stop-color="white" stop-opacity="0"/>
</linearGradient>
<linearGradient id="paint1_linear_862_58792" x1="145.541" y1="209.847" x2="171.511" y2="62.3267" gradientUnits="userSpaceOnUse">
<stop stop-color="#C8B0EF"/>
<stop offset="1" stop-color="#D2BBF8"/>
</linearGradient>
</defs>
</svg>
